#!OML:ASF E:/inclinewalkrobotboard/Project1/Captureday1/Session1/subject1.ASF
:FULLY-SPECIFIED
:DEGREES
113
root 0 0 0 -3.4443782382378245 4.122771982142893 2.6554307566700697
lowerback 11.686764527278346 -0.9808540088691573 -3.753506542524013
upperback 1.2494840242446994 -1.564219286443539 1.072789716856763
thorax -5.16736279819828 -0.675430029594501 3.3813942372308645
lowerneck -17.723711066185277 -2.8739654887385324 -2.521876574313686
upperneck 17.629738766937606 -3.1288594081911136 -0.34620648602700044
head 8.31743487834717 -1.6849380039354263 -0.07014307886071203
rclavicle 2.959979279973381E-15 1.5596773993299755E-15
rhumerus -50.875650904973064 -18.906129201201583 -72.45801070645884
rradius 23.600973675736068
rwrist -1.0474342897701554
rhand -21.590987764337704 27.848598380739226
rfingers 7.125020000000054
rthumb 4.775475571265115 -2.4189736314842847
lclavicle -2.7460111464959697E-16 -8.149619748110117E-15
lhumerus -35.358983369754576 -1.5165928523266903 83.89405078050585
lradius 28.83152396105675
lwrist 8.321430552892195
lhand -31.81429073536239 24.113069631145276
lfingers 7.125020000000042
lthumb -5.005838786627653 54.829332510025694
rfemur -29.370755354881425 29.200795743904422 42.012642212010846
rtibia 23.4236367667614
rfoot -7.893921936948386 -14.12131375553507
rtoes -3.2371691275368804
lfemur 2.2970945794263216 -4.535821595889551 -22.94519883667001
ltibia 28.601865355631293
lfoot -6.677946790183778 -4.620211769950824
ltoes -9.745821947676932
114
root 0 0 0 -3.4469621712401484 3.969506276162843 2.6283039548314235
lowerback 11.696736478978544 -0.9657256996896411 -3.7157723522020927
upperback 1.2535879982107758 -1.5426142019553046 1.0770647607831738
thorax -5.172813714969162 -0.6651713377306292 3.3627868279532325
lowerneck -17.71335705678897 -2.873457684738576 -2.5069522059328038
upperneck 17.629812014304548 -3.1316831060673658 -0.34848400743194663
head 8.313123390583725 -1.685636446119764 -0.07265827277855963
rclavicle 3.0082877825001974E-15 1.5966441178152447E-15
rhumerus -50.76213969893767 -18.9432233169325 -72.87310423088007
rradius 23.55599920981126
rwrist -1.3240856842013677
rhand -21.52344795316794 27.785485022133066
rfingers 7.125020000000054
rthumb 4.84028703072628 -2.471875770653469
lclavicle -1.3581459014013882E-16 -7.986482939315478E-15
lhumerus -35.186292644393006 -1.5828827320611119 84.06326021832392
lradius 28.916517382086738
lwrist 8.716675174736434
lhand -31.65759644668637 24.325210640265947
lfingers 7.125020000000041
lthumb -4.858473682079268 55.01468586954551
rfemur -29.16682109155228 28.915698833377405 41.90178858645288
rtibia 23.459474247996678
rfoot -8.037009080303696 -13.809841723768695
rtoes -3.3517420700985987
lfemur 1.5606693920499382 -4.119974416123895 -22.763035576025516
ltibia 30.61411383094129
lfoot -5.852468940344849 -5.316504752947058
ltoes -10.264059395680265
115
root 0 0 0 -3.4486267882015724 3.773074380011902 2.59520033061197
lowerback 11.708949936074312 -0.94674802932184 -3.667068601349623
upperback 1.2561607149475709 -1.5147694766922741 1.083003117527434
thorax -5.182265662915947 -0.6517811796965003 3.3390654823789516
lowerneck -17.70271546265972 -2.874318260857865 -2.4902186002462785
upperneck 17.634864083373355 -3.1370142350010854 -0.35244310554921476
head 8.310226499416542 -1.687580334825606 -0.07613806676973911
rclavicle 3.0694834390273867E-15 1.6334323134829684E-15
rhumerus -50.681277588705846 -18.956706316488294 -73.17023911936266
rradius 23.521268913100407
rwrist -1.5093510084768944
rhand -21.480594341881176 27.738463376939755
rfingers 7.125020000000054
rthumb 4.881375453337938 -2.5128914682654386
lclavicle -3.6987665393844526E-17 -7.86295702651327E-15
lhumerus -35.090854111393924 -1.6327628409437942 84.1894494599791
lradius 28.978196353999785
lwrist 8.99988194237805
lhand -31.52999832161066 24.476790021398976
lfingers 7.125020000000041
lthumb -4.738286986073792 55.14363681225456
rfemur -29.00738342138733 28.703716469159417 41.808874519127656
rtibia 23.490251566506966
rfoot -8.137517526817433 -13.60270471744933
rtoes -3.37723968448762
lfemur 0.46195899839548815 -3.538450188597558 -22.531955224589524
ltibia 33.23689882644578
lfoot -4.801693429694804 -6.15151275626021
ltoes -10.92227596070835
116
root 0 0 0 -3.45360186861706 3.522866161022691 2.5494546120801598
lowerback 11.724726175647046 -0.9218920773517634 -3.601284355297362
upperback 1.2585528357476328 -1.4775718921743664 1.090826382593527
thorax -5.195109155770953 -0.6338232809212656 3.3066060129132646
lowerneck -17.690651116331388 -2.876838681069124 -2.4700628872751653
upperneck 17.64542271313234 -3.1460122684656224 -0.35681735244206614
head 8.308767945172368 -1.6910445355496504 -0.08057765190075794
rclavicle 3.1582745575413335E-15 1.7088588522633188E-15
rhumerus -50.61390761923405 -18.960522443574668 -73.43893735731078
rradius 23.488391718404923
rwrist -1.6525117648987617
rhand -21.44751267179118 27.694774951982964
rfingers 7.125020000000054
rthumb 4.913110536047579 -2.552566276667223
lclavicle 4.8231173604098346E-17 -7.731633328167549E-15
lhumerus -35.06564430834555 -1.6668702264738489 84.29811628685127
lradius 29.01912328514191
lwrist 9.217901514751315
lhand -31.417094588313 24.586612088202074
lfingers 7.12502000000004
lthumb -4.631616680504312 55.23271072664186
rfemur -28.85147939309995 28.50340726961585 41.7239855059064
rtibia 23.518224469584403
rfoot -8.235305331609304 -13.418966532343472
rtoes -3.3627841352353904
lfemur -1.3049367635776932 -2.603446073906227 -22.220649582074607
ltibia 37.17222203886545
lfoot -3.2795804287319967 -7.312749290934146
ltoes -11.909152507863562
117
root 0 0 0 -3.4811820020203506 2.8943177772619144 2.417072492293679
lowerback 11.7667619182775 -0.8553869315952132 -3.417187053558722
upperback 1.2637562217277463 -1.3751981784964962 1.1124207923710072
thorax -5.228663881496041 -0.5842658887146652 3.2148102861561516
lowerneck -17.6660459506583 -2.8881317330052 -2.422785273733876
upperneck 17.683378486115537 -3.176269893629741 -0.3641603278782295
head 8.311845649716185 -1.7031133427447018 -0.09155546627357847
rclavicle 3.4576234460029346E-15 1.9669822809169615E-15
rhumerus -50.53014185545664 -18.934678559202744 -73.88061057910491
rradius 23.426455194574274
rwrist -1.8138616190595727
rhand -21.4099343094751 27.62016080793874
rfingers 7.125020000000054
rthumb 4.9493020636860265 -2.624417706014068
lclavicle 1.82871209711432E-16 -7.485895723565574E-15
lhumerus -35.24110726655334 -1.6922914174732924 84.45132828700025
lradius 29.03249013563339
lwrist 9.440479588898633
lhand -31.24752906053007 24.671467421544428
lfingers 7.12502000000004
lthumb -4.470503768118128 55.28361774607439
rfemur -28.571024046340128 28.161155067204447 41.57201816510931
rtibia 23.567540897967827
rfoot -8.41664552248999 -13.145913629312224
rtoes -3.2270680495311836
lfemur -5.979955508284682 -0.055916245644302975 -21.215825394997466
ltibia 47.53707081657024
lfoot 0.5691456639740373 -10.330773355267386
ltoes -14.33741448213697
118
root 0 0 0 -3.5537524453201996 2.209135804838997 2.223691621179304
lowerback 11.821688852795592 -0.7710511978851922 -3.169420028371869
upperback 1.2784184065381154 -1.2416070131623729 1.140227795308475
thorax -5.2588222624025045 -0.5199242893211888 3.0889808497660485
lowerneck -17.64304418791766 -2.9059193036189397 -2.369921190545795
upperneck 17.728696445375178 -3.2195640851573373 -0.35980066658403764
head 8.31934112519123 -1.7198411348907998 -0.1020520586668745
rclavicle 3.761309426031922E-15 2.2597421302108723E-15
rhumerus -50.403001040500556 -18.934953114804234 -74.43221324983936
rradius 23.365899428591778
rwrist -2.0337538776113355
rhand -21.349356067681374 27.527295304341543
rfingers 7.125020000000054
rthumb 5.007719464354821 -2.7113045686319666
lclavicle 3.2266020160430905E-16 -7.173336215463811E-15
lhumerus -35.45098385169565 -1.7099126323053522 84.60772768752413
lradius 29.02995635040528
lwrist 9.653869529378895
lhand -31.076006247821436 24.737517453274855
lfingers 7.125020000000039
lthumb -4.307166598701571 55.315552475321944
rfemur -28.22655977026929 27.74556055598805 41.4203240664001
rtibia 23.611572052753743
rfoot -8.653440122347783 -12.760430573080475
rtoes -3.1593111889683847
lfemur -8.584089839588621 1.643096195884313 -19.65279039656754
ltibia 55.195895820479635
lfoot 3.249245735933446 -13.038492344864515
ltoes -15.526976285930202
119
root 0 0 0 -3.7400737383816356 1.2301875130362419 1.8583319131446672
lowerback 11.932120334564019 -0.6234195211004119 -2.7152495851915206
upperback 1.3202337271179374 -1.000365443923313 1.1897776359610777
thorax -5.293991570933242 -0.4036061661341328 2.8538565773896707
lowerneck -17.620118527387973 -2.941255847238291 -2.2922188491551747
upperneck 17.78633975734936 -3.2971102937711043 -0.3347527537737278
head 8.331173064217385 -1.750021104596881 -0.11487646859327505
rclavicle 3.755837713879222E-15 2.2769078448686094E-15
rhumerus -50.187669231904636 -18.912362486477836 -74.88209110774967
rradius 23.358466178560704
rwrist -2.293363104001177
rhand -21.30978757036353 27.44834157481708
rfingers 7.125020000000054
rthumb 5.04588837678288 -2.788287117243451
lclavicle 2.2327114657455223E-16 -6.998219026362834E-15
lhumerus -35.66940162672837 -1.7538360202155605 84.73816797656792
lradius 29.059229525125183
lwrist 9.95271342114141
lhand -30.873876730971926 24.829640384122047
lfingers 7.125020000000039
lthumb -4.1158604727755765 55.36403788885426
rfemur -27.891717988749676 27.416907906222377 41.28052009731577
rtibia 23.656024949209872
rfoot -8.820944798745627 -12.440484435136442
rtoes -3.0076543409873864
lfemur -9.485592037191651 2.2268048430619256 -18.136712074295417
ltibia 59.14302329006537
lfoot 4.507535752351682 -14.757755073062317
ltoes -15.713172950392773
